<?xml version="1.0" encoding="UTF-8" standalone="no"?>
<!-- Created with Inkscape (http://www.inkscape.org/) -->

<svg
   width="25"
   height="25"
   viewBox="0 0 6.6145832 6.6145833"
   version="1.1"
   id="svg1"
   xml:space="preserve"
   xmlns="http://www.w3.org/2000/svg"
   xmlns:svg="http://www.w3.org/2000/svg"><defs
     id="defs1" /><g
     id="layer1"><g
       id="g1"
       transform="translate(0.03008202,-0.10745088)"><path
         style="fill:#000000;stroke-width:0.0145024"
         d="M 1.8087057,5.016086 C 1.7827098,5.0002364 1.7484726,4.9659991 1.7326225,4.9400032 1.7052892,4.8951718 1.703802,4.866041 1.7037506,4.3742803 L 1.7037082,3.855823 H 1.9212431 2.1387776 V 4.2328825 4.6099431 H 3.2772097 4.4156413 V 4.2328825 3.855823 h 0.217535 0.2175348 v 0.5199386 c 0,0.5164081 -2.26e-4,0.5202733 -0.032919,0.5692163 -0.071143,0.1064934 0.029504,0.099992 -1.5478335,0.099958 -1.3853672,-2.81e-5 -1.4149323,-6.128e-4 -1.4612409,-0.02885 z M 2.9714622,3.468737 C 2.813993,3.2788326 2.6601078,3.0931827 2.629495,3.0561828 2.5382446,2.9458926 2.5428113,2.9421772 2.7696168,2.9421772 H 2.9653982 V 2.3783619 c 0,-0.4613747 0.00364,-0.5668284 0.019991,-0.5804047 0.013894,-0.011532 0.1078633,-0.01539 0.3081737,-0.012652 l 0.2881838,0.00394 0.00379,0.5615447 0.00379,0.5615447 0.1918066,0.00404 c 0.1681949,0.00355 0.1923976,0.00712 0.1966063,0.029069 0.00283,0.014765 -0.084482,0.1425838 -0.2129909,0.311799 C 3.4252799,3.704242 3.3403135,3.8043611 3.2960451,3.8095378 3.2619821,3.8135217 3.2261799,3.7759297 2.9714526,3.4687331 Z"
         id="path867" /></g></g></svg>
